<?xml version="1.0" standalone="no"?>
<!DOCTYPE svg PUBLIC "-//W3C//DTD SVG 20010904//EN"
 "http://www.w3.org/TR/2001/REC-SVG-20010904/DTD/svg10.dtd">
<svg version="1.0" xmlns="http://www.w3.org/2000/svg"
 width="700.000000pt" height="700.000000pt" viewBox="0 0 700.000000 700.000000"
 preserveAspectRatio="xMidYMid meet">
<metadata>
Created by potrace 1.14, written by Peter Selinger 2001-2017
</metadata>
<g transform="translate(0.000000,700.000000) scale(0.100000,-0.100000)"
fill="#000000" stroke="none">
<path d="M3299 6786 c-2 -2 -44 -6 -94 -10 -49 -3 -101 -8 -115 -11 -14 -3
-45 -7 -70 -10 -25 -3 -56 -7 -70 -10 -35 -7 -66 -13 -132 -25 -61 -11 -284
-71 -352 -94 -258 -88 -471 -187 -677 -312 -643 -390 -1142 -989 -1396 -1679
-109 -297 -167 -553 -200 -885 -17 -178 -5 -583 21 -745 4 -22 9 -53 11 -70 3
-16 7 -41 10 -55 3 -14 8 -41 11 -60 11 -64 55 -234 86 -335 247 -796 801
-1484 1528 -1898 105 -59 235 -123 343 -168 67 -28 131 -54 142 -59 38 -17
247 -81 347 -106 573 -145 1221 -129 1778 44 632 196 1196 577 1605 1083 77
95 99 124 157 209 208 304 351 605 457 965 26 88 77 314 85 380 4 28 11 77 16
110 30 200 33 647 6 815 -3 14 -7 43 -10 65 -16 126 -48 287 -77 390 -11 39
-27 93 -34 122 -26 95 -106 304 -163 426 -425 913 -1229 1580 -2202 1827 -86
22 -106 26 -213 46 -80 15 -115 20 -202 30 -27 3 -61 8 -75 10 -32 6 -516 15
-521 10z"/>
</g>
</svg>
