<?xml version="1.0" encoding="utf-8"?>
<!-- Generator: Adobe Illustrator 27.4.0, SVG Export Plug-In . SVG Version: 6.00 Build 0)  -->
<svg version="1.1" id="Layer_1" xmlns="http://www.w3.org/2000/svg" xmlns:xlink="http://www.w3.org/1999/xlink" x="0px" y="0px"
	 viewBox="0 0 500 500" style="enable-background:new 0 0 500 500;" xml:space="preserve">
<style type="text/css">
	.st0{fill:#FF7B54;}
</style>
<g>
	<path class="st0" d="M250,488.5c-63.2,0-122.6-24.6-167.2-69.3S13.5,315.2,13.5,252c0-63.2,24.6-122.6,69.3-167.2
		S186.8,15.5,250,15.5c63.2,0,122.6,24.6,167.2,69.3s69.3,104.1,69.3,167.2c0,63.2-24.6,122.6-69.3,167.2S313.2,488.5,250,488.5z"/>
	<path class="st0" d="M250,16c31.9,0,62.8,6.2,91.9,18.5c28.1,11.9,53.3,28.9,75,50.6c21.7,21.7,38.7,46.9,50.6,75
		c12.3,29.1,18.5,60,18.5,91.9s-6.2,62.8-18.5,91.9c-11.9,28.1-28.9,53.3-50.6,75c-21.7,21.7-46.9,38.7-75,50.6
		c-29.1,12.3-60,18.5-91.9,18.5s-62.8-6.2-91.9-18.5c-28.1-11.9-53.3-28.9-75-50.6c-21.7-21.7-38.7-46.9-50.6-75
		C20.2,314.8,14,283.9,14,252s6.2-62.8,18.5-91.9c11.9-28.1,28.9-53.3,50.6-75c21.7-21.7,46.9-38.7,75-50.6
		C187.2,22.2,218.1,16,250,16 M250,15C119.1,15,13,121.1,13,252s106.1,237,237,237s237-106.1,237-237S380.9,15,250,15L250,15z"/>
</g>
</svg>
