<?xml version="1.0" encoding="UTF-8"?>
<svg id="Layer_1" xmlns="http://www.w3.org/2000/svg" viewBox="0 0 1034 407.02">
  <defs>
    <style>
      .cls-1 {
        stroke-width: 1.13px;
      }

      .cls-1, .cls-2, .cls-3, .cls-4, .cls-5 {
        fill: #fff;
        stroke: #fff;
      }

      .cls-1, .cls-3, .cls-4, .cls-5 {
        fill-rule: evenodd;
      }

      .cls-6 {
        fill: #0c8e97;
      }

      .cls-2, .cls-3, .cls-4, .cls-5 {
        stroke-miterlimit: 10;
      }

      .cls-3 {
        stroke-width: .02px;
      }

      .cls-4 {
        stroke-width: .02px;
      }

      .cls-5 {
        stroke-width: .03px;
      }
    </style>
  </defs>
  <g>
    <path class="cls-6" d="M741.52,406.52c-78.12,0-178.31-14.63-297.79-43.47-12.18-2.94-25.62-4.37-41.09-4.37-33.84,0-70.85,6.83-110.03,14.05-39.59,7.3-80.53,14.85-118.32,14.85-55.91,0-94.96-16.54-122.89-52.07C17.15,291.94.5,220.11.5,115.9c0-21.35,4.49-39.93,13.34-55.2,8.35-14.41,20.87-26.36,37.19-35.51C80.69,8.58,123,.5,180.38.5c90.37,0,201.15,19.96,308.28,39.27,93.11,16.78,181.06,32.63,243.48,32.63,174.75,0,274.55,27.81,296.61,82.65,11.36,28.22,2.1,64.22-27.52,107-23.95,34.59-56.03,66.99-87.12,96.85-32.92,31.61-90.98,47.63-172.58,47.63Z"/>
    <path class="cls-6" d="M180.42,1c90.32,0,201.08,19.96,308.19,39.26,93.12,16.78,181.08,32.64,243.53,32.64,93.04,0,165.5,7.94,215.36,23.6,43.41,13.63,70.59,33.39,80.79,58.74,6.05,15.04,6.25,32.39.59,51.59-4.9,16.64-14.34,35.12-28.06,54.93-23.93,34.56-55.98,66.93-87.06,96.77-32.82,31.51-90.77,47.49-172.24,47.49s-178.24-14.62-297.67-43.46c-12.21-2.95-25.69-4.38-41.23-4.38-33.88,0-70.9,6.83-110.11,14.06-39.57,7.3-80.48,14.84-118.22,14.84-26.22,0-48.31-3.61-67.53-11.03-22.08-8.52-40.06-21.89-54.97-40.85-16.28-20.71-28.78-48.54-37.15-82.7C5.59,215.49,1,169.53,1,115.9c0-21.26,4.47-39.75,13.28-54.95,8.31-14.33,20.76-26.21,37.01-35.32C80.85,9.06,123.08,1,180.41,1h0M180.38,0C75.32,0,0,27.38,0,115.9c0,223.54,77.94,272.18,174.3,272.18,74.28,0,159.47-28.91,228.35-28.9,14.45,0,28.21,1.28,40.97,4.36,113.2,27.33,215.51,43.49,297.91,43.49,78.09,0,138.29-14.51,172.93-47.77,92.11-88.44,287.38-287.35-182.31-287.35C599.18,71.9,350.68-.01,180.38,0h0Z"/>
  </g>
  <g>
    <path class="cls-5" d="M187.5,248.05c13.71.56,28.24-11.06,45.5-46.91-50.44,16.2-89.66,5.7-85.7-1.24,2.72-4.77,24.04-11.88,82.2-2.32,0,0-18.11-1.47-37.81-2.68-22.79-1.4-39.65.56-40.93,6-.52,6.8,55.85,8.36,82.26.14-6.72,23.22-21.93,52.98-47.47,51.41-16.18-1.27-30.35-22.97-40.1-42.5,15.82,24.67,27.89,37.33,42.04,38.1Z"/>
    <path class="cls-5" d="M230.53,211.01s6.52-11.98,16.87-10.86c15.3,1.66-11.14,37.49-31.29,37.21,3.28-.98,7.18-2.3,13.5-7.05,7.73-5.81,25.55-23.02,13.33-25.86-4.55-1.05-12.41,6.58-12.41,6.58h0Z"/>
    <path class="cls-1" d="M163.96,242.56s-64.79,8.27-6.66,22.05c77.14,18.28,103.01-7.51,103.08-11.02.34-14.44-44.75-12.26-44.75-12.26,13.14,1.77,13.85.34,29.04,3.84,15.18,3.52-5.72,23.97-37.7,22.45-56.57-2.69-95.31-13.82-43.03-25.06h.01Z"/>
    <path class="cls-4" d="M175.79,131.53c-3.29,6.1-4.36,22.2,7.92,29.93,12.27,7.73-11.77,42.39-12.69,42.36-.92-.03,16.81-30.76,11.13-37.74-5.7-6.97-6.35-34.55-6.35-34.55Z"/>
    <path class="cls-3" d="M201.71,134.11c-3.29,5.85-7.92,21.7,4.36,29.11,12.27,7.41-11.77,40.63-12.69,40.6-.92-.03,16.81-29.49,11.13-36.16-5.7-6.69-2.79-33.55-2.79-33.55Z"/>
    <g>
      <path class="cls-2" d="M341.44,191.05c0,2.95-1.01,5.63-3.02,8.04-2.01,2.39-4.47,4.52-7.37,6.42s-5.96,3.56-9.16,4.97c-3.17,1.38-5.92,2.54-8.27,3.46,0,1.65-.04,3.32-.11,5.03-.08,1.68-.2,3.38-.34,5.08,2.49-1.23,5.28-2.37,8.38-3.46,3.09-1.12,6.03-1.68,8.82-1.68,2.26,0,4.1.47,5.53,1.4,1.45.94,2.18,2.57,2.18,4.91,0,2.57-.92,4.86-2.74,6.87-1.83,2.01-4.02,3.8-6.59,5.36-2.57,1.54-5.25,2.83-8.04,3.91-2.79,1.09-5.17,1.94-7.09,2.57,0,2.57-.04,5.12-.11,7.65-.08,2.5-.2,5-.34,7.48-.08,1.23-.21,2.78-.39,4.64-.2,1.87-.59,3.67-1.17,5.42-.6,1.76-1.44,3.27-2.51,4.52-1.09,1.27-2.49,1.9-4.19,1.9s-3.04-.78-4.19-2.35c-1.16-1.59-2.15-3.63-2.96-6.09-.82-2.49-1.49-5.26-2.01-8.32-.49-3.09-.87-6.1-1.12-9.05-.27-2.93-.42-5.64-.45-8.1-.04-2.49-.06-4.41-.06-5.75,0-1.01.01-2.49.06-4.47.03-1.97.07-4.15.11-6.53.03-2.42.11-4.93.22-7.54.11-2.64.24-5.14.39-7.48.14-2.37.35-4.48.61-6.31.29-1.81.63-3.16,1.01-4.02.85-1.7,2.88-3.41,6.09-5.08,3.24-1.68,6.83-3.14,10.78-4.41,3.94-1.26,7.79-2.3,11.56-3.13,3.76-.81,6.65-1.23,8.66-1.23.92,0,1.84.06,2.74.17s1.73.38,2.51.78c.78.38,1.4.92,1.84,1.62.47.71.73,1.65.73,2.79Z"/>
      <path class="cls-2" d="M382.36,231.49c-1.09.08-2.01-.01-2.79-.28-.78-.25-1.56-.56-2.35-.89-.67-.29-1.37-.57-2.07-.84-.71-.25-1.49-.35-2.35-.28-1.54.08-2.9.5-4.13,1.28-1.2.75-2.28,1.72-3.24,2.9-.98,1.16-1.81,2.46-2.51,3.91-.71,1.42-1.26,2.82-1.62,4.19-.22.94-.39,2.35-.5,4.24s-.17,3.95-.17,6.14c-.08,2.23-.11,4.36-.11,6.37s-.1,3.62-.28,4.8c-.08,1.23-.27,2.68-.56,4.36-.31,1.65-.78,3.21-1.45,4.69-.67,1.49-1.55,2.74-2.62,3.74-1.09,1.01-2.49,1.51-4.19,1.51-1.31,0-2.44-.39-3.41-1.17-.98-.78-1.79-1.8-2.46-3.07-.67-1.3-1.23-2.79-1.68-4.47-.42-1.7-.73-3.46-.95-5.25-.22-1.86-.39-3.71-.5-5.58-.11-1.86-.2-3.63-.22-5.31-.04-1.68-.04-3.2,0-4.58.03-1.41.06-2.53.06-3.35-.08-2.71-.22-5.44-.45-8.21-.2-2.75-.28-5.49-.28-8.21,0-1.7.07-3.6.22-5.7.14-2.08.57-4.03,1.28-5.86.7-1.81,1.73-3.35,3.07-4.58,1.37-1.26,3.25-1.9,5.64-1.9,1.34,0,2.47.43,3.41,1.28.92.87,1.68,1.93,2.23,3.18.59,1.23,1.03,2.55,1.34,3.97.34,1.38.53,2.65.61,3.8,1.86-3.02,3.94-5.47,6.25-7.37,2.35-1.9,5.38-2.93,9.1-3.13,1.81-.07,3.64.11,5.47.56,1.81.42,3.49,1.1,5.03,2.07,1.52.98,2.76,2.23,3.74,3.8.96,1.56,1.48,3.39,1.56,5.47.14,2.46-.6,4.36-2.23,5.7-1.65,1.31-3.62,2-5.92,2.07Z"/>
      <path class="cls-2" d="M441.63,258.57c0,1.42-.06,3.27-.17,5.53-.11,2.23-.45,4.41-1.01,6.53-.53,2.12-1.38,3.95-2.57,5.47-1.16,1.56-2.78,2.35-4.86,2.35-2.88,0-5.08-.94-6.65-2.79-1.54-1.81-2.26-4.13-2.18-6.92-2.5,2.16-5.31,3.85-8.43,5.08s-6.34,1.84-9.61,1.84c-2.23,0-4.36-.54-6.37-1.62-2.01-1.08-3.8-2.46-5.36-4.13-1.56-1.7-2.82-3.63-3.74-5.75-.94-2.15-1.4-4.27-1.4-6.37,0-3.71,1.13-6.98,3.41-9.77,2.3-2.79,5.11-5.17,8.43-7.15,3.35-1.97,6.9-3.53,10.67-4.69,3.76-1.19,7.11-1.97,10.05-2.35,0-.36.01-.7.06-1.01.03-.34.06-.7.06-1.12,0-2.37-.66-4.3-1.95-5.75-1.31-1.48-3.17-2.23-5.58-2.23-1.94,0-3.62.34-5.03,1.01-1.38.64-2.68,1.37-3.91,2.18-1.23.82-2.49,1.56-3.74,2.23-1.23.64-2.62.95-4.19.95-1.72,0-3.17-.53-4.36-1.62-1.2-1.08-1.79-2.47-1.79-4.19,0-2.53.74-4.83,2.23-6.92,1.52-2.12,3.42-3.88,5.7-5.31,2.3-1.45,4.8-2.58,7.48-3.41,2.68-.81,5.14-1.23,7.37-1.23,2.08,0,4.16.27,6.25.78,2.12.49,4.1,1.27,5.98,2.35,1.86,1.05,3.53,2.33,5.03,3.85,1.52,1.49,2.75,3.24,3.69,5.25,1.37,2.88,2.49,5.92,3.35,9.16.85,3.21,1.51,6.51,1.95,9.88.47,3.35.8,6.73.95,10.11.14,3.35.22,6.62.22,9.77ZM423.03,254.89l-.34-7.93c-.15,0-.32-.01-.5-.06-.15-.03-.31-.06-.45-.06-1.01,0-2.28.27-3.8.78-1.49.49-2.95,1.17-4.36,2.07-1.38.89-2.55,1.88-3.52,2.96-.98,1.09-1.45,2.22-1.45,3.41,0,1.09.39,1.83,1.17,2.23.78.38,1.68.56,2.68.56,1.7,0,3.53-.45,5.47-1.34,1.93-.89,3.63-1.76,5.08-2.62Z"/>
      <path class="cls-2" d="M499.52,241.76c0,4.24-.43,8.47-1.28,12.68-.82,4.17-2.26,7.92-4.3,11.22-2.01,3.28-4.72,5.92-8.1,7.93-3.35,2.01-7.54,3.02-12.57,3.02s-9.1-.99-12.45-2.96c-3.32-1.97-5.98-4.58-7.99-7.82-1.98-3.27-3.38-6.95-4.19-11.06-.78-4.13-1.17-8.32-1.17-12.57,0-4.65.53-9.27,1.62-13.85.22-1.23.64-2.93,1.28-5.14.67-2.23,1.52-4.41,2.57-6.53,1.08-2.12,2.29-3.97,3.63-5.53,1.37-1.56,2.86-2.35,4.47-2.35s2.81.43,3.74,1.28c.92.87,1.65,1.94,2.18,3.24.56,1.27.91,2.62,1.06,4.08.14,1.42.22,2.71.22,3.85,0,1.79-.14,3.55-.39,5.25-.27,1.72-.56,3.41-.89,5.08-.31,2.35-.59,4.69-.84,7.04-.27,2.32-.39,4.62-.39,6.92,0,1.16.06,2.46.17,3.91s.39,2.83.84,4.13c.47,1.31,1.14,2.4,2.01,3.29.85.89,2.04,1.34,3.57,1.34,2.01,0,3.6-.53,4.8-1.62,1.23-1.08,2.12-2.43,2.68-4.08.59-1.63.96-3.36,1.12-5.19.14-1.86.22-3.57.22-5.14,0-3.42-.25-6.77-.73-10.05-.45-3.31-.87-6.66-1.23-10.05-.08-.4-.11-.95-.11-1.62,0-1.19.18-2.36.56-3.52.4-1.14.95-2.19,1.62-3.13.7-.92,1.56-1.68,2.57-2.23,1.01-.59,2.14-.89,3.41-.89,1.7,0,3.21.6,4.52,1.79,1.3,1.2,2.4,2.74,3.29,4.64s1.62,4.05,2.18,6.42c.59,2.35,1.06,4.68,1.4,6.98.36,2.28.61,4.41.73,6.42s.17,3.62.17,4.8Z"/>
      <path class="cls-2" d="M555.35,254.27c0,2.65-.84,5.24-2.51,7.76-1.68,2.54-3.78,4.79-6.31,6.76-2.5,1.98-5.18,3.56-8.04,4.75-2.88,1.2-5.51,1.79-7.93,1.79-4.1,0-7.76-1.02-11-3.07-3.21-2.04-5.89-4.65-8.04-7.82-2.16-3.2-3.83-6.72-4.97-10.55-1.12-3.83-1.68-7.57-1.68-11.22,0-3.87.53-8,1.62-12.4,1.12-4.43,2.76-8.5,4.97-12.23,2.19-3.71,4.97-6.81,8.32-9.27,3.38-2.49,7.4-3.74,12.06-3.74,2.64,0,5.15.45,7.54,1.34,2.42.89,4.52,2.16,6.31,3.8,1.79,1.61,3.21,3.55,4.3,5.81,1.08,2.23,1.62,4.75,1.62,7.54,0,3.66-.78,7.06-2.35,10.22-1.54,3.17-3.57,5.92-6.14,8.27-2.54,2.32-5.47,4.19-8.82,5.64-3.35,1.42-6.76,2.21-10.22,2.35.29,2.28,1.19,3.91,2.68,4.91,1.52,1.01,3.35,1.51,5.47,1.51,1.52,0,3.02-.39,4.47-1.17,1.48-.78,2.92-1.65,4.3-2.62,1.41-.96,2.79-1.81,4.13-2.57,1.37-.78,2.76-1.17,4.19-1.17,1.52,0,2.9.5,4.13,1.51,1.26,1.01,1.9,2.32,1.9,3.91ZM536.53,225.79c0-1.01-.28-2.04-.84-3.13-.56-1.08-1.42-1.62-2.57-1.62-1.72,0-3.16.45-4.3,1.34-1.16.89-2.12,2.04-2.9,3.41-.78,1.34-1.4,2.79-1.84,4.36-.42,1.54-.66,2.95-.73,4.24,1.08-.22,2.37-.52,3.91-.89,1.52-.4,2.96-.92,4.3-1.56,1.34-.67,2.49-1.51,3.46-2.51,1.01-1.01,1.51-2.21,1.51-3.63Z"/>
      <path class="cls-2" d="M612.17,264.05c0,1.56-.64,2.93-1.9,4.08-1.27,1.16-2.9,2.21-4.91,3.13-1.98.94-4.23,1.72-6.76,2.35-2.5.64-4.97,1.14-7.43,1.51-2.43.36-4.73.64-6.92.84-2.16.22-3.9.34-5.19.34s-3.16-.04-5.53-.11c-2.35-.08-4.69-.38-7.04-.89-2.32-.47-4.33-1.28-6.03-2.4-1.72-1.14-2.57-2.74-2.57-4.75,0-1.52.53-3.41,1.62-5.64,1.08-2.26,2.47-4.72,4.19-7.37,1.7-2.64,3.6-5.33,5.7-8.1,2.08-2.75,4.13-5.39,6.14-7.93,2.04-2.57,3.94-4.91,5.7-7.04,1.79-2.15,3.18-3.92,4.19-5.31-1.09.22-2.46.56-4.13,1.01-1.65.42-3.35.82-5.14,1.23-1.79.38-3.52.7-5.19.95-1.68.27-3.1.39-4.24.39-.94,0-1.98-.17-3.13-.5-1.16-.34-2.26-.81-3.29-1.45-1.05-.63-1.94-1.35-2.68-2.18-.75-.85-1.12-1.84-1.12-2.96,0-1.37.61-2.65,1.84-3.85,1.26-1.23,2.9-2.32,4.91-3.29,2.01-.96,4.24-1.8,6.7-2.51,2.49-.74,4.93-1.35,7.32-1.84,2.42-.52,4.7-.89,6.87-1.12,2.19-.25,3.94-.39,5.25-.39,1.48,0,3.27.17,5.36.5,2.08.31,4.1.84,6.09,1.62,1.97.78,3.64,1.83,5.03,3.13,1.41,1.31,2.12,2.99,2.12,5.03,0,.6-.06,1.16-.17,1.68-.11.49-.25,1.05-.39,1.68-.15.53-.84,1.73-2.07,3.63-1.2,1.9-2.67,4.16-4.41,6.76-1.72,2.61-3.62,5.4-5.7,8.38-2.05,2.99-4.01,5.79-5.86,8.43-1.87,2.65-3.5,4.97-4.91,6.98-1.38,2.01-2.29,3.38-2.74,4.08,3.16-.85,6.38-1.56,9.66-2.12,3.31-.59,6.6-.89,9.88-.89.74,0,1.73.04,2.96.11,1.26.08,2.47.31,3.63.67,1.14.34,2.15.84,3.02,1.51.85.64,1.28,1.54,1.28,2.68Z"/>
      <path class="cls-2" d="M685.07,236.62v5.98c0,2.54-.06,5.28-.17,8.21-.11,2.95-.38,5.91-.78,8.88-.38,2.99-.98,5.68-1.79,8.1-.82,2.39-1.84,4.36-3.07,5.92s-2.82,2.35-4.75,2.35c-1.72,0-3.02-.71-3.91-2.12-.89-1.45-1.55-3.14-1.95-5.08-.38-1.93-.59-3.91-.61-5.92-.04-2.04-.06-3.64-.06-4.8,0-3.49.11-6.9.34-10.22.25-3.35.39-6.76.39-10.22v-2.12c0-1.01-.1-2.01-.28-3.02-.15-1.01-.39-1.9-.73-2.68s-.87-1.17-1.56-1.17c-1.42,0-2.55.73-3.41,2.18-.82,1.42-1.51,3.1-2.07,5.03-.56,1.94-.95,3.88-1.17,5.81-.22,1.9-.38,3.29-.45,4.19-.15,1.05-.31,2.57-.45,4.58-.11,2.01-.27,4.23-.45,6.65-.2,2.39-.5,4.84-.95,7.37-.42,2.5-.95,4.79-1.62,6.87-.64,2.05-1.45,3.71-2.46,5.03-1.01,1.3-2.26,1.95-3.74,1.95-1.87,0-3.29-.82-4.3-2.46-1.01-1.59-1.76-3.48-2.23-5.64-.45-2.19-.73-4.41-.84-6.65s-.17-3.98-.17-5.25.01-2.57.06-3.8c.03-1.26.06-2.54.06-3.85v-2.68c0-1.23-.03-2.6-.06-4.13-.04-1.52-.14-3.09-.28-4.69-.11-1.63-.28-3.13-.5-4.47-.22-1.37-.59-2.49-1.06-3.35-.45-.85-.99-1.28-1.62-1.28-1.01,0-1.94.66-2.79,1.95-.87,1.27-1.61,2.78-2.23,4.52-.6,1.76-1.09,3.49-1.45,5.19-.34,1.68-.5,2.9-.5,3.69v.73c0,3.73.22,7.37.67,10.95.47,3.55.73,7.18.73,10.89,0,2.16-.71,4.16-2.12,5.98-1.38,1.81-3.29,2.74-5.75,2.74-1.79,0-3.28-.67-4.47-2.01-1.16-1.37-2.12-3.14-2.9-5.31-.75-2.15-1.34-4.54-1.79-7.15-.42-2.6-.7-5.15-.84-7.65-.15-2.53-.25-4.82-.28-6.87-.04-2.04-.06-3.57-.06-4.58,0-1.19-.04-2.9-.11-5.14-.04-2.23,0-4.66.11-7.32.14-2.64.36-5.33.67-8.1.29-2.75.8-5.25,1.51-7.48.7-2.26,1.62-4.1,2.74-5.53,1.12-1.45,2.57-2.18,4.36-2.18,2.01,0,3.64.56,4.91,1.68,1.3,1.09,1.95,2.71,1.95,4.86,0,.45-.03.92-.06,1.4-.04.45-.1.88-.17,1.28.85-1.23,1.9-2.47,3.13-3.74,1.23-1.3,2.54-2.47,3.97-3.52,1.45-1.03,2.99-1.9,4.64-2.57,1.63-.67,3.27-1.01,4.91-1.01,1.52,0,2.9.43,4.13,1.28,1.26.87,2.36,1.94,3.29,3.24.92,1.27,1.69,2.65,2.29,4.13.63,1.45,1.06,2.83,1.28,4.13.78-1.37,1.73-2.76,2.85-4.19,1.14-1.45,2.37-2.71,3.69-3.8,1.3-1.12,2.75-2.01,4.36-2.68,1.59-.7,3.24-1.06,4.91-1.06s3.03.59,4.19,1.73c1.19,1.16,2.19,2.65,3.02,4.47.85,1.83,1.51,3.9,1.95,6.2.47,2.28.87,4.52,1.17,6.76.34,2.21.53,4.24.61,6.14.07,1.9.11,3.39.11,4.47Z"/>
      <path class="cls-2" d="M714.84,278.34c-3.95,0-7.4-1.05-10.33-3.13-2.95-2.08-5.44-4.75-7.48-7.99-2.01-3.27-3.52-6.9-4.52-10.89-1.01-3.98-1.51-7.9-1.51-11.78,0-4.13.5-8.38,1.51-12.73,1.01-4.38,2.54-8.39,4.64-12.01,2.12-3.6,4.8-6.55,8.04-8.82,3.27-2.3,7.15-3.46,11.62-3.46s8.06,1.2,11.11,3.57c3.09,2.35,5.54,5.29,7.37,8.82,1.86,3.55,3.18,7.41,3.97,11.62.78,4.17,1.06,8.13.84,11.84-.22,4.1-.88,8.25-1.95,12.45-1.05,4.17-2.57,7.93-4.58,11.28-2.01,3.32-4.57,6.02-7.65,8.1-3.1,2.08-6.79,3.13-11.06,3.13ZM716.01,225.79c-1.16,0-2.18.64-3.07,1.9-.89,1.23-1.65,2.74-2.23,4.52-.56,1.79-1.01,3.67-1.34,5.64-.31,1.98-.45,3.69-.45,5.14,0,1.87.17,3.9.5,6.09.36,2.16.85,4.16,1.45,5.98.63,1.83,1.4,3.34,2.29,4.52.89,1.2,1.91,1.79,3.07,1.79,1.23,0,2.29-.57,3.18-1.73.89-1.14,1.59-2.62,2.12-4.41.56-1.79.95-3.74,1.17-5.86.25-2.12.39-4.1.39-5.98,0-1.7-.17-3.59-.5-5.64-.31-2.04-.75-3.97-1.34-5.75-.56-1.79-1.28-3.25-2.18-4.41-.89-1.19-1.93-1.79-3.07-1.79Z"/>
      <path class="cls-2" d="M786.34,231.49c-1.09.08-2.01-.01-2.79-.28-.78-.25-1.56-.56-2.35-.89-.67-.29-1.37-.57-2.07-.84-.71-.25-1.49-.35-2.35-.28-1.54.08-2.9.5-4.13,1.28-1.2.75-2.28,1.72-3.24,2.9-.98,1.16-1.81,2.46-2.51,3.91-.71,1.42-1.26,2.82-1.62,4.19-.22.94-.39,2.35-.5,4.24s-.17,3.95-.17,6.14c-.08,2.23-.11,4.36-.11,6.37s-.1,3.62-.28,4.8c-.08,1.23-.27,2.68-.56,4.36-.31,1.65-.78,3.21-1.45,4.69-.67,1.49-1.55,2.74-2.62,3.74-1.09,1.01-2.49,1.51-4.19,1.51-1.31,0-2.44-.39-3.41-1.17-.98-.78-1.79-1.8-2.46-3.07-.67-1.3-1.23-2.79-1.68-4.47-.42-1.7-.73-3.46-.95-5.25-.22-1.86-.39-3.71-.5-5.58-.11-1.86-.2-3.63-.22-5.31-.04-1.68-.04-3.2,0-4.58.03-1.41.06-2.53.06-3.35-.08-2.71-.22-5.44-.45-8.21-.2-2.75-.28-5.49-.28-8.21,0-1.7.07-3.6.22-5.7.14-2.08.57-4.03,1.28-5.86.7-1.81,1.73-3.35,3.07-4.58,1.37-1.26,3.25-1.9,5.64-1.9,1.34,0,2.47.43,3.41,1.28.92.87,1.68,1.93,2.23,3.18.59,1.23,1.03,2.55,1.34,3.97.34,1.38.53,2.65.61,3.8,1.86-3.02,3.94-5.47,6.25-7.37,2.35-1.9,5.38-2.93,9.1-3.13,1.81-.07,3.64.11,5.47.56,1.81.42,3.49,1.1,5.03,2.07,1.52.98,2.76,2.23,3.74,3.8.96,1.56,1.48,3.39,1.56,5.47.14,2.46-.6,4.36-2.23,5.7-1.65,1.31-3.62,2-5.92,2.07Z"/>
      <path class="cls-2" d="M848.91,235.34c0,3.95-.08,7.92-.22,11.9-.11,3.95-.32,7.9-.61,11.84-.22,3.39-.54,7.04-.95,10.95-.38,3.88-.99,7.72-1.84,11.56-.87,3.83-2,7.5-3.41,11-1.38,3.53-3.23,6.66-5.53,9.38-2.28,2.71-5.05,4.87-8.32,6.48-3.24,1.63-7.09,2.46-11.56,2.46-2.09,0-4.44-.34-7.04-1.01-2.61-.64-5.07-1.59-7.37-2.85-2.28-1.23-4.22-2.76-5.81-4.58-1.56-1.83-2.35-3.94-2.35-6.31,0-1.79.63-3.45,1.9-4.97,1.3-1.49,2.96-2.23,4.97-2.23,1.23,0,2.4.2,3.52.61,1.12.45,2.23.92,3.35,1.45,1.14.56,2.25,1.03,3.29,1.45,1.03.45,2.09.67,3.18.67,2.86,0,5.26-.73,7.2-2.18,1.93-1.42,3.48-3.24,4.64-5.47,1.19-2.21,2.07-4.61,2.62-7.2.59-2.57,1.01-5.03,1.23-7.37-1.54,1.79-3.34,3.02-5.42,3.69-2.05.63-4.19.95-6.42.95-4.13,0-7.64-.7-10.5-2.12-2.88-1.45-5.19-3.42-6.98-5.92-1.76-2.53-3.06-5.44-3.91-8.77-.87-3.35-1.28-6.95-1.28-10.83,0-2.42.24-5.14.73-8.15.52-3.02,1.28-6.06,2.29-9.16,1.01-3.13,2.25-6.16,3.74-9.1,1.52-2.93,3.29-5.53,5.31-7.76,2.01-2.26,4.27-4.09,6.81-5.47,2.53-1.41,5.31-2.12,8.32-2.12s5.54.87,7.82,2.57c2.3,1.72,3.64,4.12,4.02,7.2.85-1.59,1.97-3.2,3.35-4.8,1.41-1.59,3.13-2.4,5.14-2.4,1.12,0,2.02.56,2.74,1.68.74,1.09,1.31,2.5,1.73,4.24.45,1.72.78,3.62,1.01,5.7.22,2.05.36,4.06.45,6.03.11,1.98.17,3.78.17,5.42v3.57ZM831.2,242.88c0-1.14-.2-2.65-.56-4.52-.34-1.86-.84-3.63-1.51-5.31-.64-1.7-1.45-3.18-2.46-4.41-1.01-1.26-2.22-1.9-3.63-1.9-1.76,0-3.32.64-4.69,1.9-1.34,1.23-2.49,2.72-3.41,4.47-.94,1.72-1.66,3.56-2.18,5.53-.49,1.98-.73,3.67-.73,5.08,0,1.01.07,2.37.22,4.08.14,1.72.46,3.39.95,5.03.52,1.61,1.2,3,2.07,4.19.85,1.16,1.97,1.73,3.35,1.73,2.12,0,3.94-.5,5.47-1.51,1.56-1.03,2.86-2.32,3.91-3.85,1.03-1.56,1.81-3.27,2.35-5.14.56-1.86.84-3.64.84-5.36Z"/>
      <path class="cls-2" d="M905.86,254.27c0,2.65-.84,5.24-2.51,7.76-1.68,2.54-3.78,4.79-6.31,6.76-2.5,1.98-5.18,3.56-8.04,4.75-2.88,1.2-5.51,1.79-7.93,1.79-4.1,0-7.76-1.02-11-3.07-3.21-2.04-5.89-4.65-8.04-7.82-2.16-3.2-3.83-6.72-4.97-10.55-1.12-3.83-1.68-7.57-1.68-11.22,0-3.87.53-8,1.62-12.4,1.12-4.43,2.76-8.5,4.97-12.23,2.19-3.71,4.97-6.81,8.32-9.27,3.38-2.49,7.4-3.74,12.06-3.74,2.64,0,5.15.45,7.54,1.34,2.42.89,4.52,2.16,6.31,3.8,1.79,1.61,3.21,3.55,4.3,5.81,1.08,2.23,1.62,4.75,1.62,7.54,0,3.66-.78,7.06-2.35,10.22-1.54,3.17-3.57,5.92-6.14,8.27-2.54,2.32-5.47,4.19-8.82,5.64-3.35,1.42-6.76,2.21-10.22,2.35.29,2.28,1.19,3.91,2.68,4.91,1.52,1.01,3.35,1.51,5.47,1.51,1.52,0,3.02-.39,4.47-1.17,1.48-.78,2.92-1.65,4.3-2.62,1.41-.96,2.79-1.81,4.13-2.57,1.37-.78,2.76-1.17,4.19-1.17,1.52,0,2.9.5,4.13,1.51,1.26,1.01,1.9,2.32,1.9,3.91ZM887.04,225.79c0-1.01-.28-2.04-.84-3.13-.56-1.08-1.42-1.62-2.57-1.62-1.72,0-3.16.45-4.3,1.34-1.16.89-2.12,2.04-2.9,3.41-.78,1.34-1.4,2.79-1.84,4.36-.42,1.54-.66,2.95-.73,4.24,1.08-.22,2.37-.52,3.91-.89,1.52-.4,2.96-.92,4.3-1.56,1.34-.67,2.49-1.51,3.46-2.51,1.01-1.01,1.51-2.21,1.51-3.63Z"/>
    </g>
    <path class="cls-2" d="M396.6,134.23v8.49h-14.63v8.49h13.96v8.49h-13.96v8.54h14.63v8.49h-24.35v-42.5h24.35Z"/>
    <path class="cls-2" d="M449.87,152.93v9.21c-1.09,5.07-3.49,8.91-7.2,11.5-3.73,2.57-7.86,3.85-12.4,3.85-5.74,0-10.64-2.14-14.69-6.42-4.02-4.31-6.03-9.51-6.03-15.58s1.97-11.39,5.92-15.64c3.94-4.24,8.88-6.37,14.8-6.37,6.88,0,12.34,2.43,16.36,7.26l-6.31,6.92c-2.28-3.64-5.44-5.47-9.49-5.47-2.99,0-5.53,1.31-7.65,3.91-2.12,2.57-3.18,5.7-3.18,9.38s1.06,6.7,3.18,9.27c2.12,2.54,4.66,3.8,7.65,3.8,2.46,0,4.59-.74,6.42-2.23,1.86-1.48,2.79-3.46,2.79-5.92h-9.77v-7.48h19.6Z"/>
    <path class="cls-2" d="M501.88,152.93v9.21c-1.09,5.07-3.49,8.91-7.2,11.5-3.73,2.57-7.86,3.85-12.4,3.85-5.74,0-10.64-2.14-14.69-6.42-4.02-4.31-6.03-9.51-6.03-15.58s1.97-11.39,5.92-15.64c3.94-4.24,8.88-6.37,14.8-6.37,6.88,0,12.34,2.43,16.36,7.26l-6.31,6.92c-2.28-3.64-5.44-5.47-9.49-5.47-2.99,0-5.53,1.31-7.65,3.91-2.12,2.57-3.18,5.7-3.18,9.38s1.06,6.7,3.18,9.27c2.12,2.54,4.66,3.8,7.65,3.8,2.46,0,4.59-.74,6.42-2.23,1.86-1.48,2.79-3.46,2.79-5.92h-9.77v-7.48h19.6Z"/>
    <path class="cls-2" d="M539.81,134.23v8.49h-14.63v8.49h13.96v8.49h-13.96v8.54h14.63v8.49h-24.35v-42.5h24.35Z"/>
    <path class="cls-2" d="M554.66,134.23h15.19c4.09,0,7.43,1.1,10,3.29,2.57,2.16,3.85,5.28,3.85,9.33,0,3.13-.78,5.75-2.35,7.87s-3.67,3.62-6.31,4.47l14.58,17.54h-12.29l-12.96-16.81v16.81h-9.72v-42.5ZM564.38,153.1h1.12c.89,0,1.63-.01,2.23-.06.63-.03,1.34-.14,2.12-.34.81-.22,1.45-.52,1.9-.89.47-.36.89-.91,1.23-1.62.36-.74.56-1.62.56-2.62s-.2-1.91-.56-2.62c-.34-.74-.75-1.3-1.23-1.68-.45-.36-1.09-.67-1.9-.89-.78-.22-1.49-.34-2.12-.34-.6-.03-1.34-.06-2.23-.06h-1.12v11.11Z"/>
    <path class="cls-3" d="M189.29,119.9c-3.29,7.08-7.92,26.24,4.36,35.21,12.27,8.97-11.77,49.14-12.69,49.11-.92-.03,16.81-35.67,11.13-43.74-5.7-8.09-2.79-40.58-2.79-40.58Z"/>
  </g>
</svg>