<?xml version="1.0" encoding="UTF-8"?>
<svg id="Layer_1" xmlns="http://www.w3.org/2000/svg" viewBox="0 0 676.99 508.67">
  <defs>
    <style>
      .cls-1 {
        fill: #c61a96;
      }
    </style>
  </defs>
  <path class="cls-1" d="M216.6,508.17c-92.26,0-158.44-21.83-191.38-63.15-24.08-30.2-30.61-70.38-19.41-119.45,11.24-49.24,24.57-80.55,43.22-101.52,17.25-19.4,37.39-28.35,62.88-39.69,38.37-17.05,86.11-38.28,148.78-106.57C307.76,26.51,358.34.5,411.01.5c42.5,0,85.94,16.81,129.1,49.95,36.72,28.2,72.96,68.42,104.8,116.29,34.88,52.46,40.91,103.02,17.92,150.29-17.07,35.08-59.57,86.46-165.1,131.98-69.37,29.92-154.39,51.21-227.44,56.95-18.63,1.46-36.69,2.2-53.68,2.2Z"/>
  <path class="cls-1" d="M411.03,1c42.39,0,85.71,16.77,128.78,49.85,36.68,28.17,72.87,68.34,104.68,116.17,34.78,52.3,40.8,102.7,17.88,149.79-12.77,26.25-34.52,51.33-64.64,74.56-27.26,21.02-60.98,40.26-100.21,57.19-69.32,29.9-154.29,51.18-227.28,56.91-18.62,1.46-36.66,2.2-53.64,2.2-45.62,0-84.97-5.28-116.98-15.7-32.55-10.59-57.45-26.49-74.01-47.26-23.98-30.07-30.48-70.12-19.32-119.03,11.22-49.15,24.51-80.39,43.1-101.3,17.18-19.32,37.27-28.25,62.71-39.56,38.41-17.07,86.21-38.32,148.95-106.69C308.03,26.96,358.48,1.01,411.03,1h0M411.01,0c-48.98,0-100.13,22.37-150.69,77.47C114.68,236.16,47.32,141.47,5.32,325.47c-28.13,123.25,57.21,183.21,211.28,183.21,17.08,0,35.01-.74,53.72-2.21,191-15,508-140,375-340C586.48,77.99,502.5-.01,411.01,0h0Z"/>
</svg>