<?xml version="1.0" encoding="UTF-8"?>
<svg id="Layer_1" xmlns="http://www.w3.org/2000/svg" viewBox="0 0 895.85 683.72">
  <defs>
    <style>
      .cls-1 {
        fill: #f2713f;
      }
    </style>
  </defs>
  <path class="cls-1" d="M264.81,683.22c-64.6,0-118.48-5.71-160.12-16.98-49.26-13.33-81.44-34.52-95.64-62.97-20.6-41.28-3.71-98.55,50.2-170.2,27.23-36.19,68.48-44.07,116.26-53.19,45.78-8.75,97.67-18.66,150.8-55.09,61.46-42.14,112.81-112.08,157-213.82C514.69,38.7,561.97.5,620.04.5c30.83,0,63.41,10.48,96.82,31.16,31.17,19.28,61.83,47.03,88.68,80.25,56.23,69.57,89.8,154.74,89.8,227.85,0,38.97-10.59,77.17-31.47,113.55-20.14,35.08-49.36,67.67-86.85,96.85-74.95,58.35-179.46,99.58-294.26,116.11-53.72,7.74-135.14,16.96-217.97,16.96Z"/>
  <path class="cls-1" d="M620.05,1c30.74,0,63.22,10.46,96.55,31.08,31.12,19.25,61.74,46.97,88.56,80.15,26.75,33.1,49.12,70.88,64.67,109.25,16.37,40.4,25.03,81.3,25.03,118.28,0,38.88-10.56,77-31.4,113.3-20.11,35.03-49.28,67.56-86.72,96.7-37.05,28.84-81.03,53.47-130.72,73.21-50.55,20.08-105.49,34.48-163.3,42.8-53.7,7.73-135.1,16.95-217.9,16.95-64.56,0-118.39-5.71-159.99-16.97-49.12-13.29-81.19-34.39-95.32-62.71-9.82-19.67-11.1-43.21-3.83-69.98,7.89-29.04,26.06-62.58,53.98-99.7,27.11-36.03,68.28-43.9,115.95-53,45.83-8.76,97.78-18.68,150.99-55.17,61.54-42.19,112.95-112.2,157.17-214.03,16.33-37.61,36.92-66.07,61.2-84.58,22.25-16.97,47.51-25.57,75.08-25.58h0M620.04,0c-53.17,0-102.91,31.83-137.19,110.76C330.85,460.76,137.85,327.76,58.85,432.76c-152.04,202.08,17.07,250.96,205.96,250.96,76.03,0,155.27-7.92,218.04-16.96,234.65-33.79,413-167.11,413-327S748.01,0,620.04,0h0Z"/>
</svg>