<?xml version="1.0" encoding="utf-8"?>
<!-- Generator: Adobe Illustrator 27.4.0, SVG Export Plug-In . SVG Version: 6.00 Build 0)  -->
<svg version="1.1" id="Capa_1" xmlns="http://www.w3.org/2000/svg" xmlns:xlink="http://www.w3.org/1999/xlink" x="0px" y="0px"
	 viewBox="0 0 512 512" style="enable-background:new 0 0 512 512;" xml:space="preserve">
<style type="text/css">
	.st0{fill:#939B62;}
</style>
<g>
	<path id="XMLID_933_" class="st0" d="M381.6,431.7H130.4c0-11-9-20-20-20V311.1c11,0,20-9,20-20h251.2c0,11,9,20,20,20v100.6
		C390.5,411.7,381.6,420.7,381.6,431.7z"/>
	<g>
		<path d="M502,200.8h-80.4v-30.2c0-5.5-4.5-10-10-10s-10,4.5-10,10v30.2h-40.2v-30.2c0-5.5-4.5-10-10-10s-10,4.5-10,10v30.2H220.8
			v-10.4c0-32.3-19.3-60.2-46.9-72.8c10.3-9.2,16.8-22.5,16.8-37.4c0-27.7-22.5-50.2-50.2-50.2S90.4,52.6,90.4,80.3
			c0,14.8,6.5,28.2,16.7,37.4c-27.6,12.6-46.9,40.5-46.9,72.8v10.4H10c-5.5,0-10,4.5-10,10V251c0,5.5,4.5,10,10,10h10.1v210.9
			c0,5.5,4.5,10,10,10h451.8c5.5,0,10-4.5,10-10V261H502c5.5,0,10-4.5,10-10v-40.2C512,205.3,507.5,200.8,502,200.8L502,200.8z
			 M140.5,50.1c16.6,0,30.2,13.5,30.2,30.2c0,16.6-13.5,30.2-30.2,30.2c-16.6,0-30.2-13.5-30.2-30.2
			C110.4,63.7,123.9,50.1,140.5,50.1z M80.2,190.4c0-33.1,26.9-60,60-60h0.6c33.1,0,60,26.9,60,60v10.4H80.2V190.4z M40.1,461.9V261
			h20.2v200.9L40.1,461.9L40.1,461.9z M431.8,261v200.9H80.2V261H431.8z M471.9,461.9h-20.2V261h20.2V461.9z M492,241H20v-20.2h472
			V241z"/>
		<path d="M198.8,401.6c5.5,0,10-4.5,10-10v-21.2h21.7v21.2c0,5.5,4.5,10,10,10c5.5,0,10-4.5,10-10v-60.2c0-5.5-4.5-10-10-10
			c-5.5,0-10,4.5-10,10v19.1h-21.7v-19.1c0-5.5-4.5-10-10-10c-5.5,0-10,4.5-10,10v60.2C188.8,397.1,193.3,401.6,198.8,401.6z"/>
		<path d="M280.6,401.6c5.5,0,10-4.5,10-10V381l15.1,17.1c3.7,4.2,10,4.5,14.1,0.9c4.1-3.6,4.5-10,0.9-14.1l-12.9-14.7
			c9.1-4.1,15.4-13,15.4-23.3c0-14.1-11.9-25.7-26.5-25.7c-17.4,0-16.5,0-17.5,0.1c-4.9,0.7-8.5,4.9-8.5,9.9v60.2
			C270.6,397.1,275.1,401.6,280.6,401.6L280.6,401.6z M296.7,341.3c3.5,0,6.5,2.6,6.5,5.7s-3.1,5.7-6.5,5.7c-1.4,0-3.6,0-5.9,0
			l0-11.3L296.7,341.3z"/>
	</g>
	<path class="st0" d="M461.9,180.7H301.1c-16.5,0-30-13.5-30-30V60.1c0-16.5,13.5-30,30-30h160.8c16.5,0,30,13.5,30,30v90.5
		C491.9,167.2,478.5,180.7,461.9,180.7L461.9,180.7z"/>
</g>
</svg>
