<?xml version="1.0" encoding="utf-8"?>
<!-- Generator: Adobe Illustrator 27.4.0, SVG Export Plug-In . SVG Version: 6.00 Build 0)  -->
<svg version="1.1" id="Capa_1" xmlns="http://www.w3.org/2000/svg" xmlns:xlink="http://www.w3.org/1999/xlink" x="0px" y="0px"
	 viewBox="0 0 512 512" style="enable-background:new 0 0 512 512;" xml:space="preserve">
<style type="text/css">
	.st0{fill-rule:evenodd;clip-rule:evenodd;fill:#939B62;}
</style>
<g>
	<path class="st0" d="M360,278.8L256.3,382.6L201.5,402l19.4-54.8L360,208.1V60H60v392h250v-50h50V278.8z"/>
	<g>
		<path d="M509.1,129.8l-35.4-35.4c-3.9-3.9-10.2-3.9-14.1,0L420,134V10c0-5.5-4.5-10-10-10H10C4.5,0,0,4.5,0,10v492
			c0,5.5,4.5,10,10,10h300c2.7,0,5.2-1.1,7.1-2.9l100-100c1.9-1.9,2.9-4.4,2.9-7.1V233l89.1-89.1C513,140,513,133.7,509.1,129.8
			L509.1,129.8z M320,477.9V412h65.9L320,477.9z M400,392h-90c-5.5,0-10,4.5-10,10v90H20V20h380v134L213.8,340.1
			c-1.1,1.1-1.9,2.3-2.4,3.7l-19.4,54.8c-1.3,3.6-0.4,7.7,2.4,10.4c1.9,1.9,4.5,2.9,7.1,2.9c1.1,0,2.2-0.2,3.3-0.6l54.8-19.4
			c1.4-0.5,2.7-1.3,3.7-2.4L400,253V392z M250.8,373.9l-32.9,11.7l11.7-32.9l237.1-237.1l21.2,21.2L250.8,373.9z"/>
		<path d="M220,260c0-5.5-4.5-10-10-10h-80c-5.5,0-10,4.5-10,10s4.5,10,10,10h80C215.5,270,220,265.5,220,260z"/>
		<path d="M130,223.3h124.2c5.5,0,10-4.5,10-10s-4.5-10-10-10H130c-5.5,0-10,4.5-10,10S124.5,223.3,130,223.3z"/>
		<path d="M130,176.7h160c5.5,0,10-4.5,10-10s-4.5-10-10-10H130c-5.5,0-10,4.5-10,10S124.5,176.7,130,176.7z"/>
		<path d="M130,130h160c5.5,0,10-4.5,10-10s-4.5-10-10-10H130c-5.5,0-10,4.5-10,10S124.5,130,130,130z"/>
	</g>
</g>
</svg>
