<?xml version="1.0" encoding="utf-8"?>
<!-- Generator: Adobe Illustrator 27.4.0, SVG Export Plug-In . SVG Version: 6.00 Build 0)  -->
<svg version="1.1" id="Capa_1" xmlns="http://www.w3.org/2000/svg" xmlns:xlink="http://www.w3.org/1999/xlink" x="0px" y="0px"
	 viewBox="0 0 512 512" style="enable-background:new 0 0 512 512;" xml:space="preserve">
<style type="text/css">
	.st0{fill-rule:evenodd;clip-rule:evenodd;fill:#939B62;}
</style>
<g>
	<g>
		<path class="st0" d="M267.6,363.9v-62.1c0-8-6.5-14.5-14.5-14.5H27.5c-8,0-14.5,6.5-14.5,14.5v190.6c0,8,6.5,14.5,14.5,14.5H253
			c8,0,14.5-6.5,14.5-14.5v-59l52.2-34.8L267.6,363.9z"/>
	</g>
	<g>
		<path d="M219.7,321.2h-25.4c-5.5,0-10,4.5-10,10c0,5.5,4.5,10,10,10h25.4c5.5,0,10-4.5,10-10C229.7,325.7,225.2,321.2,219.7,321.2
			z"/>
		<path d="M60.9,321.2c-5.5,0-10,4.5-10,10c0,5.5,4.5,10,10,10h83.5c5.5,0,10-4.5,10-10c0-5.5-4.5-10-10-10H60.9z"/>
		<path d="M219.7,365.2H60.9c-5.5,0-10,4.5-10,10c0,5.5,4.5,10,10,10h158.8c5.5,0,10-4.5,10-10C229.7,369.7,225.2,365.2,219.7,365.2
			z"/>
		<path d="M164.5,453.1H60.9c-5.5,0-10,4.5-10,10s4.5,10,10,10h103.6c5.5,0,10-4.5,10-10S170,453.1,164.5,453.1z"/>
		<path d="M219.7,409.1h-83.5c-5.5,0-10,4.5-10,10s4.5,10,10,10h83.5c5.5,0,10-4.5,10-10S225.2,409.1,219.7,409.1z"/>
		<path d="M60.9,429.1h25.3c5.5,0,10-4.5,10-10s-4.5-10-10-10H60.9c-5.5,0-10,4.5-10,10S55.3,429.1,60.9,429.1z"/>
		<path d="M509,220.1V29.5C509,16,498,5,484.5,5H259c-13.5,0-24.5,11-24.5,24.5v56.7L186.6,118c-2.8,1.9-4.5,5-4.5,8.3
			c0,3.3,1.7,6.5,4.5,8.3l47.8,31.8v53.6c0,13.5,11,24.5,24.5,24.5h225.5C498,244.7,509,233.7,509,220.1L509,220.1z M254.5,220.1
			v-59c0-3.4-1.7-6.5-4.5-8.3l-39.7-26.4L250,100c2.8-1.9,4.5-5,4.5-8.3V29.5c0-2.5,2.1-4.5,4.5-4.5h225.5c2.4,0,4.5,2.1,4.5,4.5
			v190.6c0,2.5-2.1,4.5-4.5,4.5H259C256.5,224.7,254.5,222.6,254.5,220.1L254.5,220.1z"/>
		<path d="M371.7,181.7c-5.5,0-10,4.5-10,10v0.1c0,5.5,4.5,10,10,10s10-4.5,10-10C381.7,186.2,377.2,181.7,371.7,181.7z"/>
		<path d="M372.5,47.9c-20.5-0.4-38.1,14.6-41,34.9c-0.3,1.9-0.4,3.8-0.4,5.7c0,5.5,4.5,10,10,10s10-4.5,10-10
			c0-0.9,0.1-1.9,0.2-2.9c1.4-10.1,10.1-17.7,20.3-17.7c0.1,0,0.3,0,0.4,0c10.7,0.2,19.5,8.7,20.1,19.4c0.3,5.7-1.7,11.1-5.6,15.2
			c-3.9,4.1-9.2,6.4-14.9,6.4c-5.5,0-10,4.5-10,10v31.9c0,5.5,4.5,10,10,10s10-4.5,10-10v-23.2c7.4-1.9,14.1-5.8,19.4-11.4
			c7.7-8.1,11.7-18.8,11.1-30C411.1,65.2,393.7,48.3,372.5,47.9L372.5,47.9z"/>
		<path d="M469.6,374.1c5.9-8.2,9.4-18.3,9.4-29.1c0-27.5-22.4-49.8-49.8-49.8s-49.8,22.4-49.8,49.8c0,10.9,3.5,20.9,9.5,29.1
			c-25.8,14.5-42.3,41.9-42.3,72.1v42.9c0,5.5,4.5,10,10,10H502c5.5,0,10-4.5,10-10v-42.9C512,416,495.5,388.6,469.6,374.1
			L469.6,374.1z M429.3,315.2c16.4,0,29.8,13.4,29.8,29.8s-13.4,29.8-29.8,29.8s-29.8-13.4-29.8-29.8S412.8,315.2,429.3,315.2z
			 M492,479.1H366.6v-32.9c0-25.3,15.3-48,38.4-57.8c7.2,4,15.5,6.3,24.3,6.3c8.8,0,17.1-2.3,24.3-6.3c23.2,9.8,38.4,32.5,38.4,57.8
			V479.1z"/>
		<path d="M165.5,216.8V174c0-30.3-16.5-57.7-42.4-72.2c5.9-8.2,9.5-18.3,9.5-29.2c0-27.5-22.4-49.8-49.8-49.8
			c-27.5,0-49.8,22.4-49.8,49.8c0,10.9,3.5,20.9,9.4,29.2C16.5,116.3,0,143.7,0,174v42.9c0,5.5,4.5,10,10,10h145.4
			C161,226.8,165.5,222.4,165.5,216.8z M82.7,42.8c16.4,0,29.8,13.4,29.8,29.8s-13.4,29.8-29.8,29.8c-16.4,0-29.8-13.4-29.8-29.8
			S66.3,42.8,82.7,42.8z M145.4,206.8H20V174c0-25.4,15.3-48,38.5-57.8c7.2,4,15.4,6.3,24.2,6.3c8.8,0,17.1-2.3,24.3-6.3
			c23.2,9.8,38.5,32.4,38.5,57.8V206.8z"/>
	</g>
</g>
</svg>
