<?xml version="1.0" encoding="utf-8"?>
<!-- Generator: Adobe Illustrator 27.4.0, SVG Export Plug-In . SVG Version: 6.00 Build 0)  -->
<svg version="1.1" id="Capa_1" xmlns="http://www.w3.org/2000/svg" xmlns:xlink="http://www.w3.org/1999/xlink" x="0px" y="0px"
	 viewBox="0 0 512 512" style="enable-background:new 0 0 512 512;" xml:space="preserve">
<style type="text/css">
	.st0{fill:#939B62;}
</style>
<g id="XMLID_114_">
	<g id="XMLID_115_">
		<path id="XMLID_116_" class="st0" d="M50.2,291.2h60.2v180.7H50.2V291.2z"/>
		<path id="XMLID_117_" class="st0" d="M271,471.8h-60.2V371.5H271V471.8z"/>
	</g>
	<g id="XMLID_119_">
		<g>
			<path id="XMLID_120_" d="M351.4,451.8h-10c-5.5,0-10,4.5-10,10s4.5,10,10,10h10c5.5,0,10-4.5,10-10S356.9,451.8,351.4,451.8z"/>
			<path id="XMLID_121_" d="M401.6,451.8h-10c-5.5,0-10,4.5-10,10s4.5,10,10,10h10c5.5,0,10-4.5,10-10S407.1,451.8,401.6,451.8
				L401.6,451.8z"/>
			<path id="XMLID_122_" d="M451.8,451.8h-10c-5.5,0-10,4.5-10,10s4.5,10,10,10h10c5.5,0,10-4.5,10-10S457.3,451.8,451.8,451.8
				L451.8,451.8z"/>
			<path id="XMLID_123_" d="M462,251h-70.4V100.4c0-2.7-1.1-5.3-2.9-7.1L298.2,2.9c-1.8-1.8-4.3-2.9-7.1-2.9h-241
				C28,0,10,18,10,40.1v431.8C10,494,28,512,50.2,512H462c22.1,0,40-17.9,40-40V291C502,269,484,251,462,251L462,251z M301.1,34.1
				l56.2,56.2h-56.2V34.1z M30,471.9V40.1C30,29,39.1,20,50.2,20h231v80.4c0,5.5,4.5,10,10,10h80.4V251h-40.3c-22.1,0-40,17.9-40,40
				v181c0,7.3,2,14.1,5.4,20H50.2C39.1,492,30,483,30,471.9L30,471.9z M482,472c0,11-9,20-20,20c-4.5,0-126.3,0-130.8,0
				c-11,0-20-9-20-20V291c0-11,9-20,20-20H462c11,0,20,9,20,20V472z"/>
			<path id="XMLID_126_" d="M180.7,331.3h-40.2c-5.5,0-10,4.5-10,10v120.5c0,5.5,4.5,10,10,10h40.2c5.5,0,10-4.5,10-10V341.3
				C190.7,335.8,186.2,331.3,180.7,331.3z M170.7,451.8h-20.2V351.3h20.2V451.8z"/>
			<path id="XMLID_129_" d="M155.3,230.9h186c5.5,0,10-4.5,10-10s-4.5-10-10-10h-186c-5.5,0-10,4.5-10,10
				C145.3,226.4,149.8,230.9,155.3,230.9z"/>
			<path id="XMLID_130_" d="M155.3,190.7h186c5.5,0,10-4.5,10-10s-4.5-10-10-10h-186c-5.5,0-10,4.5-10,10
				C145.3,186.2,149.8,190.7,155.3,190.7z"/>
			<path id="XMLID_131_" d="M155.3,150.5h186c5.5,0,10-4.5,10-10c0-5.5-4.5-10-10-10h-186c-5.5,0-10,4.5-10,10
				S149.8,150.5,155.3,150.5z"/>
			<path id="XMLID_132_" d="M351.4,371.5h-10c-5.5,0-10,4.5-10,10s4.5,10,10,10h10c5.5,0,10-4.5,10-10
				C361.4,376,356.9,371.5,351.4,371.5z"/>
			<path id="XMLID_133_" d="M401.6,371.5h-10c-5.5,0-10,4.5-10,10s4.5,10,10,10h10c5.5,0,10-4.5,10-10
				C411.6,376,407.1,371.5,401.6,371.5L401.6,371.5z"/>
			<path id="XMLID_134_" d="M451.8,371.5h-10c-5.5,0-10,4.5-10,10s4.5,10,10,10h10c5.5,0,10-4.5,10-10
				C461.8,376,457.3,371.5,451.8,371.5L451.8,371.5z"/>
			<path id="XMLID_135_" d="M351.4,411.7h-10c-5.5,0-10,4.5-10,10s4.5,10,10,10h10c5.5,0,10-4.5,10-10
				C361.4,416.2,356.9,411.7,351.4,411.7z"/>
			<path id="XMLID_136_" d="M401.6,411.7h-10c-5.5,0-10,4.5-10,10s4.5,10,10,10h10c5.5,0,10-4.5,10-10
				C411.6,416.2,407.1,411.7,401.6,411.7L401.6,411.7z"/>
			<path id="XMLID_137_" d="M451.8,411.7h-10c-5.5,0-10,4.5-10,10s4.5,10,10,10h10c5.5,0,10-4.5,10-10
				C461.8,416.2,457.3,411.7,451.8,411.7L451.8,411.7z"/>
			<path id="XMLID_138_" d="M451.8,291.2H341.3c-5.5,0-10,4.5-10,10v40.2c0,5.5,4.5,10,10,10h110.4c5.5,0,10-4.5,10-10v-40.2
				C461.8,295.7,457.3,291.2,451.8,291.2z M441.8,331.3h-90.4v-20.2h90.4V331.3z"/>
		</g>
		<g id="XMLID_142_">
			<path id="XMLID_143_" d="M101.2,165.7c-9.3-3.3-19.6-7.3-25.4-11.8c-4.3-3.4-2.5-15.2,5.8-17.7c11.2-3.4,18.5,2.5,19.1,3
				c4,3.6,10.2,3.4,13.9-0.6c3.8-4,3.9-10.3-0.1-14.1c-2.6-2.4-9.6-6.6-16.6-8.3v-4.8c0-5.5-4.5-10-10-10s-10,4.5-10,10v5.2
				c-8,1.2-20.8,10.2-23.6,25.3c-2.1,11,1.4,21.6,9.2,27.8c6.5,5.1,15.4,9.4,31,14.9c10.6,3.7,10.3,12.3,9.7,15.8
				c-1.2,7.1-7.2,14.7-17.4,14.8c-10,0.1-13.1-0.4-20.8-5.4c-4.6-3-10.8-1.7-13.8,2.9c-3,4.6-1.5,10.8,3.1,13.8
				c8.5,5.6,14.6,7.7,22.6,8.4v5.1c0,5.5,4.5,10,10,10s10-4.5,10-10v-6.4c15-4.3,24.1-17.2,26.2-30
				C127.1,186.8,117.7,171.5,101.2,165.7L101.2,165.7z"/>
		</g>
	</g>
</g>
</svg>
