<?xml version="1.0" encoding="utf-8"?>
<!-- Generator: Adobe Illustrator 27.4.0, SVG Export Plug-In . SVG Version: 6.00 Build 0)  -->
<svg version="1.1" id="Capa_1" xmlns="http://www.w3.org/2000/svg" xmlns:xlink="http://www.w3.org/1999/xlink" x="0px" y="0px"
	 viewBox="0 0 512 512" style="enable-background:new 0 0 512 512;" xml:space="preserve">
<style type="text/css">
	.st0{fill:#939B62;}
</style>
<g id="XMLID_592_">
	<path id="XMLID_593_" class="st0" d="M430.3,0v171.3H325.7c0,38.5-31.2,69.7-69.7,69.7c-38.5,0-69.7-31.2-69.7-69.7H81.7V0H430.3z"
		/>
	<g id="XMLID_594_">
		<g id="XMLID_595_">
			<path id="XMLID_596_" d="M500,161.3H325.7c-5.5,0-10,4.5-10,10c0,32.9-26.8,59.7-59.7,59.7c-32.9,0-59.7-26.8-59.7-59.7
				c0-5.5-4.5-10-10-10H12c-5.5,0-10,4.5-10,10v266.6C2,478.8,35.2,512,76.1,512h359.9c40.8,0,74.1-33.2,74.1-74.1V171.3
				C510,165.8,505.5,161.3,500,161.3z M435.9,492H76.1C46.2,492,22,467.7,22,437.9V300.9h49.8c5.5,0,10-4.5,10-10s-4.5-10-10-10H22
				v-99.5h154.9c4.9,39.3,38.5,69.7,79.1,69.7s74.2-30.5,79.1-69.7H490v99.5h-49.8c-5.5,0-10,4.5-10,10s4.5,10,10,10H490v137.1
				C490,467.7,465.8,492,435.9,492z"/>
			<path id="XMLID_599_" d="M131.5,300.9h249c5.5,0,10-4.5,10-10s-4.5-10-10-10h-249c-5.5,0-10,4.5-10,10S126,300.9,131.5,300.9
				L131.5,300.9z"/>
			<path id="XMLID_600_" d="M56.8,372.6c5.3,0,10-4.5,10-10c0-5.2-4.6-10-10-10c-5.5,0-10,4.5-10,10
				C46.8,367.9,51.3,372.6,56.8,372.6z"/>
			<path id="XMLID_601_" d="M96.7,372.6c5.4,0,10-4.5,10-10c0-5.5-4.6-10-10-10c-5.5,0-10,4.5-10,10C86.6,368,91.2,372.6,96.7,372.6
				z"/>
			<path id="XMLID_602_" d="M129.5,355.6c-1.8,1.8-3,4.3-3,7c0,5.4,4.6,10,10,10c5.4,0,10-4.6,10-10c0-5.4-4.6-10-10-10
				C133.8,352.6,131.3,353.7,129.5,355.6L129.5,355.6z"/>
			<path id="XMLID_603_" d="M183.4,355.5c-1.8-1.8-4.3-3-7-3c-5.3,0-10,4.5-10,10c0,5.4,4.6,10,10,10c5.5,0,10-4.6,10-10
				C186.3,359.8,185.2,357.3,183.4,355.5L183.4,355.5z"/>
			<path id="XMLID_604_" d="M223.2,355.6c-1.8-1.8-4.3-3-7-3c-5.4,0-10,4.6-10,10c0,5.4,4.6,10,10,10c5.3,0,10-4.7,10-10
				C226.2,359.9,225,357.4,223.2,355.6z"/>
			<path id="XMLID_605_" d="M263,355.6c-1.8-1.8-4.3-3-7-3c-5.4,0-10,4.6-10,10c0,5.3,4.5,10,10,10c5.3,0,10-4.5,10-10
				C266,359.9,264.8,357.4,263,355.6L263,355.6z"/>
			<path id="XMLID_606_" d="M302.9,355.5c-1.8-1.8-4.3-3-7-3c-5.4,0-10,4.6-10,10c0,5.4,4.6,10,10,10c5.4,0,10-4.7,10-10
				C305.8,359.9,304.7,357.4,302.9,355.5z"/>
			<path id="XMLID_607_" d="M342.7,355.5c-1.8-1.8-4.3-3-7-3c-5.4,0-10,4.6-10,10c0,5.4,4.5,10,10,10c5.3,0,10-4.7,10-10
				C345.7,359.8,344.5,357.3,342.7,355.5z"/>
			<path id="XMLID_608_" d="M368.5,355.6c-1.8,1.8-3,4.3-3,7c0,5.4,4.6,10,10,10c5.4,0,10-4.6,10-10c0-5.4-4.6-10-10-10
				C372.8,352.6,370.3,353.7,368.5,355.6z"/>
			<path id="XMLID_609_" d="M415.3,372.6c5.4,0,10-4.6,10-10c0-5.4-4.6-10-10-10c-5.4,0-10,4.6-10,10
				C405.3,367.9,409.9,372.6,415.3,372.6z"/>
			<path id="XMLID_610_" d="M455.2,352.6c-5.4,0-10,4.6-10,10c0,5.4,4.5,10,10,10c5.4,0,10-4.6,10-10
				C465.2,357.1,460.6,352.6,455.2,352.6z"/>
			<path id="XMLID_611_" d="M63.9,395.4c-1.8-1.8-4.3-2.9-7-2.9c-5.5,0-10,4.5-10,10c0,5.3,4.5,10,10,10c5.4,0,10-4.6,10-10
				C66.8,399.7,65.7,397.2,63.9,395.4z"/>
			<path id="XMLID_612_" d="M103.7,395.4c-1.8-1.8-4.3-3-7-3c-5.4,0-10,4.6-10,10c0,5.3,4.5,10,10,10c5.2,0,10-4.6,10-10
				C106.6,399.7,105.5,397.2,103.7,395.4L103.7,395.4z"/>
			<path id="XMLID_613_" d="M143.5,395.4c-1.8-1.8-4.3-3-7-3c-5.3,0-10,4.5-10,10c0,5.5,4.6,10,10,10c5.3,0,10-4.5,10-10
				C146.5,399.7,145.3,397.2,143.5,395.4L143.5,395.4z"/>
			<path id="XMLID_614_" d="M176.3,392.4c-5.3,0-10,4.5-10,10c0,5.4,4.6,10,10,10c5.4,0,10-4.6,10-10
				C186.3,397,181.7,392.4,176.3,392.4z"/>
			<path id="XMLID_615_" d="M216.2,392.4c-5.3,0-10,4.7-10,10c0,5.4,4.6,10,10,10c5.4,0,10-4.6,10-10
				C226.2,397,221.5,392.4,216.2,392.4z"/>
			<path id="XMLID_616_" d="M256,392.4c-5.5,0-10,4.5-10,10c0,5.4,4.6,10,10,10c5.4,0,10-4.6,10-10C266,397,261.4,392.4,256,392.4z"
				/>
			<path id="XMLID_617_" d="M295.8,392.4c-5.4,0-10,4.6-10,10c0,5.4,4.6,10,10,10c5.4,0,10-4.6,10-10
				C305.8,397,301.3,392.4,295.8,392.4z"/>
			<path id="XMLID_618_" d="M335.7,392.4c-5.4,0-10,4.6-10,10c0,5.4,4.6,10,10,10c5.5,0,10-4.6,10-10
				C345.7,396.9,341.1,392.4,335.7,392.4z"/>
			<path id="XMLID_619_" d="M382.5,395.4c-1.8-1.8-4.3-3-7-3c-5.4,0-10,4.6-10,10c0,5.4,4.6,10,10,10c5.4,0,10-4.6,10-10
				C385.5,399.7,384.4,397.2,382.5,395.4z"/>
			<path id="XMLID_620_" d="M422.4,395.4c-1.8-1.8-4.3-3-7-3c-5.4,0-10,4.6-10,10c0,5.4,4.7,10,10,10c5.4,0,10-4.6,10-10
				C425.3,399.7,424.2,397.2,422.4,395.4z"/>
			<path id="XMLID_621_" d="M455.2,392.4c-5.4,0-10,4.6-10,10c0,5.3,4.6,10,10,10c5.4,0,10-4.6,10-10
				C465.2,397,460.6,392.4,455.2,392.4z"/>
			<path id="XMLID_622_" d="M76.7,432.2c-5.2,0-10,4.6-10,10c0,5.3,4.7,10,10,10c5.5,0,10-4.5,10-10
				C86.7,436.8,82.1,432.2,76.7,432.2z"/>
			<path id="XMLID_623_" d="M116.6,432.2c-5.4,0-10,4.6-10,10c0,5.4,4.6,10,10,10c5.3,0,10-4.7,10-10
				C126.6,436.8,122,432.2,116.6,432.2z"/>
			<path id="XMLID_624_" d="M395.4,432.2c-5.4,0-10,4.6-10,10c0,5.4,4.5,10,10,10c5.4,0,10-4.6,10-10c0-2.6-1.1-5.2-2.9-7.1
				C400.6,433.3,398.1,432.2,395.4,432.2z"/>
			<path id="XMLID_625_" d="M435.3,432.2c-5.4,0-10,4.5-10,10c0,5.4,4.6,10,10,10c5.4,0,10-4.6,10-10
				C445.3,436.8,440.7,432.2,435.3,432.2z"/>
			<path id="XMLID_626_" d="M355.6,432.2H156.4c-5.5,0-10,4.5-10,10s4.5,10,10,10h199.2c5.5,0,10-4.5,10-10S361.1,432.2,355.6,432.2
				z"/>
			<path id="XMLID_627_" d="M121.5,61.8h59.8c5.5,0,10-4.5,10-10s-4.5-10-10-10h-59.8c-5.5,0-10,4.5-10,10S116,61.8,121.5,61.8z"/>
			<path id="XMLID_628_" d="M121.5,101.7h268.9c5.5,0,10-4.5,10-10s-4.5-10-10-10H121.5c-5.5,0-10,4.5-10,10S116,101.7,121.5,101.7z
				"/>
			<path id="XMLID_629_" d="M121.5,141.5h268.9c5.5,0,10-4.5,10-10s-4.5-10-10-10H121.5c-5.5,0-10,4.5-10,10
				C111.5,137,116,141.5,121.5,141.5z"/>
		</g>
	</g>
	<g>
		<path id="XMLID_630_" class="st0" d="M380.5,290.9c0-16.5,13.4-29.9,29.9-29.9c16.5,0,29.9,13.4,29.9,29.9s-13.4,29.9-29.9,29.9
			C393.9,320.7,380.5,307.4,380.5,290.9z"/>
		<circle id="XMLID_631_" class="st0" cx="101.6" cy="290.9" r="29.9"/>
	</g>
</g>
</svg>
