<?xml version="1.0" encoding="utf-8"?>
<!-- Generator: Adobe Illustrator 27.4.0, SVG Export Plug-In . SVG Version: 6.00 Build 0)  -->
<svg version="1.1" id="Capa_1" xmlns="http://www.w3.org/2000/svg" xmlns:xlink="http://www.w3.org/1999/xlink" x="0px" y="0px"
	 viewBox="0 0 512 512" style="enable-background:new 0 0 512 512;" xml:space="preserve">
<style type="text/css">
	.st0{fill:#939B62;}
</style>
<g id="XMLID_254_">
	<g id="XMLID_255_">
		<path id="XMLID_256_" class="st0" d="M96.7,205.8H46.5v-20.4c0-41.4,33.6-75,75-75h160.1c-41.4,0-75,33.6-75,75v20.4v85.4
			c0,8.4,4.2,15.9,10.6,20.5v4.6H96.7v-25.1L96.7,205.8z"/>
		<path id="XMLID_257_" class="st0" d="M256.8,205.8h-50.2v-20.4c0-41.4,33.6-75,75-75h70.8c32.6,0,60.4,20.8,70.7,49.9
			c2.8,7.9,4.3,16.3,4.3,25.2v20.4h-50.2v85.4v21.7v3.3H256.8v-25.1V205.8z"/>
	</g>
	<path id="XMLID_258_" d="M457.5,322.6v-9.7c0-13.3-8.3-24.8-20.1-29.3v-98.2c0-5.5-0.5-10.8-1.6-16.1c15.3-3.6,26.9-17.4,26.9-34.1
		c0-19.4-15.7-35.1-35.2-34.8h-65.5c9.7-10.7,15.6-24.8,15.6-40.4c0-33.1-26.9-60-60-60s-60,26.9-60,60c0,15.5,5.9,29.7,15.6,40.4
		H202c9.7-10.7,15.6-24.8,15.6-40.4c0-33.1-26.9-60-60-60s-60,26.9-60,60c0,15.7,6.1,30,16,40.7c-43.2,4-77.1,40.4-77.1,84.6v105.8
		c0,25.9,27.1,42.7,50.2,31.7v148.5c0,22.4,18.2,40.6,40.6,40.6c11.5,0,22.4-4.8,30.3-13.6c7.3,8.3,18,13.6,29.9,13.6
		c21.9,0,39.7-17.7,39.7-39.7V326c6.9,0.9,13.6-0.2,19.6-3.1v148.5c0,22.4,18.2,40.6,40.6,40.6c11.3,0,22.2-4.6,30.3-13.6
		c7.3,8.4,18,13.6,29.9,13.6c21.9,0,39.6-17.7,39.6-39.7V414h63.6c13.6,0,24.7-11.1,24.7-24.7v-42.8
		C475.5,335.1,467.9,325.6,457.5,322.6L457.5,322.6z M437.5,321.7h-50.3c0-0.6,0-9.3,0-8.7c0-6.3,5.1-11.5,11.5-11.5h27.4
		c6.6,0,11.5,5.3,11.5,11.5L437.5,321.7z M417.4,281.5h-18.7c-4,0-7.9,0.8-11.5,2.2v-67.9h30.2V281.5z M427.9,120.4
		c8.1-0.2,14.8,6.4,14.8,14.8c0,7.6-5.6,13.9-13,14.9c-5.3-11.6-13.1-21.7-22.6-29.7C430.6,120.4,427.7,120.4,427.9,120.4z
		 M317.7,20c22.1,0,40,18,40,40s-18,40-40,40s-40-18-40-40S295.7,20,317.7,20z M157.6,20c22.1,0,40,18,40,40s-18,40-40,40
		s-40-18-40-40S135.6,20,157.6,20L157.6,20z M71.6,306.3c-8.3,0-15.1-6.8-15.1-15.1v-75.4h30.2v75.4
		C86.7,299.6,79.9,306.3,71.6,306.3z M207.1,472.3c0,10.9-8.8,19.7-19.7,19.7c-10.8,0-19.7-8.8-19.7-19.7V366.5c0-5.5-4.5-10-10-10
		s-10,4.5-10,10v105c0,11.4-9.2,20.6-20.6,20.6c-11.3,0-20.6-9.2-20.6-20.6c0-10.4,0-270.3,0-285.5c0-5.5-4.5-10-10-10
		s-10,4.5-10,10v9.8H56.5v-10.4c0-35.9,29.2-65,65-65h105.4c-18.5,15.6-30.3,39-30.3,65v105.8c0,9.5,3.9,18.5,10.6,25.1V472.3z
		 M222.9,303.5c-4-2.8-6.4-7.4-6.4-12.3v-75.4h30.2v75.4C246.8,303.5,232.8,310.6,222.9,303.5z M347.5,492
		c-10.8,0-19.7-8.8-19.7-19.7V366.5c0-5.5-4.5-10-10-10c-5.5,0-10,4.5-10,10v105c0,11.3-9.2,20.6-20.6,20.6
		c-11.3,0-20.6-9.2-20.6-20.6c0-10.4,0-270.3,0-285.5c0-5.5-4.5-10-10-10c-5.5,0-10,4.5-10,10v9.8h-30.2v-10.4c0-35.9,29.2-65,65-65
		h70.8c27.5,0,52.1,17.4,61.3,43.2c5.1,14.5,3.4,25,3.7,32.2h-30.2v-9.8c0-5.5-4.5-10-10-10s-10,4.5-10,10v136.4
		c-10.9,2.6-19.1,12.4-19.1,24.1v42.8c0,11.7,8.2,21.5,19.1,24.1v59C367.2,483.2,358.4,492,347.5,492L347.5,492z M455.5,389.2
		c0,2.6-2.1,4.7-4.7,4.7h-77.9c-2.6,0-4.7-2.1-4.7-4.7v-42.8c0-2.6,2.1-4.7,4.7-4.7h77.9c2.6,0,4.7,2.1,4.7,4.7V389.2z"/>
</g>
</svg>
