<?xml version="1.0" encoding="utf-8"?>
<!-- Generator: Adobe Illustrator 27.4.0, SVG Export Plug-In . SVG Version: 6.00 Build 0)  -->
<svg version="1.1" id="Capa_1" xmlns="http://www.w3.org/2000/svg" xmlns:xlink="http://www.w3.org/1999/xlink" x="0px" y="0px"
	 viewBox="0 0 512 512" style="enable-background:new 0 0 512 512;" xml:space="preserve">
<style type="text/css">
	.st0{fill:#939B62;}
</style>
<g id="XMLID_51_">
	<path id="XMLID_52_" d="M388.3,330.7c9.5-20.6-5.6-44.2-28.3-44.2h-33.6c-4.1-5.3-9.2-9.8-15.2-13v-23.7
		c12.5-3.6,21.7-15.2,21.7-28.9v-10.1c0-5.5-4.5-10-10-10s-10,4.5-10,10v10.1c0,5.6-4.5,10.1-10.1,10.1h-73.6
		c-5.6,0-10.1-4.5-10.1-10.1v-10.1c0-5.5-4.5-10-10-10s-10,4.5-10,10v10.1c0,13.7,9.2,25.3,21.7,28.9v18h-6.8
		c-24.6,0-47.5,12.2-61.1,32.7c-9,13.5-23.5,22.1-39.7,23.6c-5.5,0.5-9.6,5.4-9.1,10.9c0.5,5.5,5.4,9.6,10.9,9.1
		c22.3-2,42.1-13.8,54.5-32.4c9.9-14.9,26.6-23.8,44.5-23.8h74.3c15.3,0,27.7,12.4,27.7,27.7v55.4c-12.7-2.5-22.4-13.7-22.4-27.2
		c0-0.1,0-25.9,0-26.2c-0.2-5.5-4.7-9.8-10.1-9.7c-5.5,0.1-9.8,4.5-9.8,10c-0.1,0.4,1,9.6-6.6,17.5c-4.5,4.7-10.5,7.3-17,7.4
		l-10.6,0.1h-29c-5.5,0-10,4.5-10,10c0,5.5,4.5,10,10,10h10.3v108.4c-4.3-0.8-9.5-2.3-14.6-5.3c-40.5-23.3-84.1-18.6-91.3-19.2
		c-5.5-0.4-10.3,3.7-10.7,9.2s3.7,10.3,9.2,10.7c8.7,0.7,47.5-3.8,82.9,16.6c8.9,5.1,17.8,7.3,24.6,8.2V502c0,5.5,4.5,10,10,10h70.3
		c5.5,0,10-4.5,10-10v-26h19.6c21.9,0,37-22,29.1-42.4c22.1-0.6,36.7-23.6,27.6-43.9c12.5-4.1,21.6-15.8,21.6-29.7
		C409.1,346.6,400.4,335,388.3,330.7L388.3,330.7z M360,306.5c6.2,0,11.2,5,11.2,11.2c0,6.1-5,11.2-11.1,11.2h-24
		c-0.2-11.4,0.5-15.4-0.8-22.4H360z M240.9,267.7v-16.8h50.3v16.9C288.4,267.6,291.2,267.7,240.9,267.7z M240.9,492
		c0-16.4,0-97.6,0-129.3c5.6-0.6,19.5,2.2,34.1-8c1.5,6.5,4.4,12.5,8.3,17.6c-22.2,5.8-29.9,34.4-14.1,51.4
		c-5.2,5.6-8.3,13-8.3,21.2c0,16.9,13.5,30.7,30.3,31.2v16L240.9,492z M330.8,456H292c-6.2,0-11.2-5-11.2-11.2
		c0-6.2,5-11.2,11.2-11.2h38.8c6.2,0,11.2,5,11.2,11.2C342,451,337,456,330.8,456z M359.1,413.7h-67c-6.2,0-11.2-5-11.2-11.2
		c0-5.6,3.5-11.2,10.2-11.2h68c6.2,0,11.2,5,11.2,11.2C370.2,408.6,365.2,413.7,359.1,413.7z M377.9,371.3h-41.8v-22.4
		c30.2,0,2.2,0,41.8,0c6.2,0,11.2,5,11.2,11.2S384.1,371.3,377.9,371.3z"/>
	<path id="XMLID_669_" class="st0" d="M66.2,210.8c-19.9,0-36.1-16.2-36.1-36.1V36.1C30.1,16.2,46.3,0,66.2,0h399.6
		C485.8,0,502,16.2,502,36.1v138.6c0,19.9-16.2,36.1-36.1,36.1H66.2z"/>
	<path id="XMLID_668_" class="st0" d="M40.1,485.5C23.5,485.5,10,472,10,455.4V326c0-16.6,13.5-30.1,30.1-30.1h54
		c16.6,0,30.1,13.5,30.1,30.1v129.3c0,16.6-13.5,30.1-30.1,30.1H40.1z"/>
	<g>
		<path id="XMLID_60_" d="M290.1,150.4c2.1,0.2,29.1,0.1,31.2,0.1c5.5,0,10-4.5,10-10c0-5.5-4.5-10-10-10c-4.8,0-11.9,0.1-20.1,0.1
			V70.2c0-5.5-4.5-10-10-10s-10,4.5-10,10v70.2C281.1,145.6,285,149.9,290.1,150.4L290.1,150.4z"/>
		<path id="XMLID_61_" d="M220.9,150.5H251c5.5,0,10-4.5,10-10s-4.5-10-10-10h-20.1v-15.1h18c5.5,0,10-4.5,10-10s-4.5-10-10-10h-18
			V80.2H251c5.5,0,10-4.5,10-10s-4.5-10-10-10h-30.1c-5.5,0-10,4.5-10,10v70.3C210.9,146.1,215.3,150.5,220.9,150.5L220.9,150.5z"/>
		<path id="XMLID_62_" d="M361.8,150.5c5.5,0,10-4.5,10-10v-20.6c3.6,0,7.3,0,9.6,0c16.7,0,30.2-13.4,30.2-29.8
			c0-16.5-13.6-29.8-30.2-29.8c-0.1,0-19.5,0-19.6,0c-5.4,0-10,4.4-10,10v70.3C351.8,146.1,356.3,150.5,361.8,150.5z M381.4,80.2
			c5.5,0,10.2,4.5,10.2,9.8c0,5.3-4.7,9.8-10.2,9.8c-2.2,0-5.9,0-9.5,0c0-9-0.1-15.3-0.1-19.7L381.4,80.2z"/>
		<path id="XMLID_65_" d="M130.5,152.5c5.5,0,10-4.5,10-10v-26.3h30.2v26.3c0,5.5,4.5,10,10,10s10-4.5,10-10V72.2
			c0-5.5-4.5-10-10-10s-10,4.5-10,10v23.9h-30.2V72.2c0-5.5-4.5-10-10-10s-10,4.5-10,10v70.3C120.5,148.1,125,152.5,130.5,152.5z"/>
	</g>
</g>
</svg>
