<?xml version="1.0" encoding="utf-8"?>
<!-- Generator: Adobe Illustrator 27.4.0, SVG Export Plug-In . SVG Version: 6.00 Build 0)  -->
<svg version="1.1" id="Capa_1" xmlns="http://www.w3.org/2000/svg" xmlns:xlink="http://www.w3.org/1999/xlink" x="0px" y="0px"
	 viewBox="0 0 512 512" style="enable-background:new 0 0 512 512;" xml:space="preserve">
<style type="text/css">
	.st0{fill:#939B62;}
</style>
<g>
	<g id="XMLID_562_">
		<path class="st0" d="M113.2,261H42.9V40.2h70.3V261z"/>
	</g>
</g>
<g>
	<path d="M146.1,0H10C4.5,0,0,4.5,0,10V502c0,5.5,4.5,10,10,10h136.1c5.5,0,10-4.5,10-10V10C156.1,4.5,151.6,0,146.1,0z
		 M136.1,491.9h-116V20.1h116V491.9z"/>
	<path d="M53,301.2h50.2c5.5,0,10-4.5,10-10c0-5.5-4.5-10-10-10H53c-5.5,0-10,4.5-10,10C42.9,296.7,47.4,301.2,53,301.2z"/>
	<path d="M53,341.3h50.2c5.5,0,10-4.5,10-10c0-5.5-4.5-10-10-10H53c-5.5,0-10,4.5-10,10C42.9,336.8,47.4,341.3,53,341.3z"/>
	<path d="M53,381.5h50.2c5.5,0,10-4.5,10-10c0-5.5-4.5-10-10-10H53c-5.5,0-10,4.5-10,10C42.9,377,47.4,381.5,53,381.5z"/>
	<path d="M78.1,471.8c19.4,0,35.1-15.8,35.1-35.1s-15.8-35.1-35.1-35.1s-35.1,15.8-35.1,35.1S58.7,471.8,78.1,471.8z M78.1,421.6
		c8.3,0,15.1,6.8,15.1,15.1s-6.8,15.1-15.1,15.1S63,445,63,436.7S69.8,421.6,78.1,421.6z"/>
</g>
<g>
	<g id="XMLID_00000009549396901478765250000006646759595246279860_">
		<path class="st0" d="M290.6,260.5h-70.3V39.7h70.3V260.5z"/>
	</g>
</g>
<g>
	<path d="M323.5-0.5H187.5c-5.5,0-10,4.5-10,10v491.9c0,5.5,4.5,10,10,10h136.1c5.5,0,10-4.5,10-10V9.5C333.6,4,329.1-0.5,323.5-0.5
		z M313.5,491.4h-116V19.6h116V491.4z"/>
	<path d="M230.4,300.7h50.2c5.5,0,10-4.5,10-10c0-5.5-4.5-10-10-10h-50.2c-5.5,0-10,4.5-10,10C220.4,296.2,224.9,300.7,230.4,300.7z
		"/>
	<path d="M230.4,340.8h50.2c5.5,0,10-4.5,10-10c0-5.5-4.5-10-10-10h-50.2c-5.5,0-10,4.5-10,10C220.4,336.3,224.9,340.8,230.4,340.8z
		"/>
	<path d="M230.4,381h50.2c5.5,0,10-4.5,10-10s-4.5-10-10-10h-50.2c-5.5,0-10,4.5-10,10S224.9,381,230.4,381z"/>
	<path d="M255.5,471.3c19.4,0,35.1-15.8,35.1-35.1s-15.8-35.1-35.1-35.1s-35.1,15.8-35.1,35.1S236.1,471.3,255.5,471.3z
		 M255.5,421.1c8.3,0,15.1,6.8,15.1,15.1s-6.8,15.1-15.1,15.1s-15.1-6.8-15.1-15.1S247.2,421.1,255.5,421.1z"/>
</g>
<g>
	<g id="XMLID_00000124163526217333410650000000051748065617619076_">
		<path class="st0" d="M468.1,260.5h-70.3V39.7h70.3V260.5z"/>
	</g>
</g>
<g>
	<path d="M500-0.5H363.9c-5.5,0-10,4.5-10,10v491.9c0,5.5,4.5,10,10,10H500c5.5,0,10-4.5,10-10V9.5C510,4,505.5-0.5,500-0.5z
		 M489.9,491.4h-116V19.6h116V491.4z"/>
	<path d="M406.8,300.7H457c5.5,0,10-4.5,10-10c0-5.5-4.5-10-10-10h-50.2c-5.5,0-10,4.5-10,10C396.8,296.2,401.3,300.7,406.8,300.7z"
		/>
	<path d="M406.8,340.8H457c5.5,0,10-4.5,10-10c0-5.5-4.5-10-10-10h-50.2c-5.5,0-10,4.5-10,10C396.8,336.3,401.3,340.8,406.8,340.8z"
		/>
	<path d="M406.8,381H457c5.5,0,10-4.5,10-10s-4.5-10-10-10h-50.2c-5.5,0-10,4.5-10,10S401.3,381,406.8,381z"/>
	<path d="M431.9,471.3c19.4,0,35.1-15.8,35.1-35.1s-15.8-35.1-35.1-35.1c-19.4,0-35.1,15.8-35.1,35.1S412.6,471.3,431.9,471.3z
		 M431.9,421.1c8.3,0,15.1,6.8,15.1,15.1s-6.8,15.1-15.1,15.1c-8.3,0-15.1-6.8-15.1-15.1S423.6,421.1,431.9,421.1z"/>
</g>
</svg>
