<?xml version="1.0" encoding="utf-8"?>
<!-- Generator: Adobe Illustrator 27.4.0, SVG Export Plug-In . SVG Version: 6.00 Build 0)  -->
<svg version="1.1" id="Capa_1" xmlns="http://www.w3.org/2000/svg" xmlns:xlink="http://www.w3.org/1999/xlink" x="0px" y="0px"
	 viewBox="0 0 512 512" style="enable-background:new 0 0 512 512;" xml:space="preserve">
<style type="text/css">
	.st0{fill:#FF7B54;}
</style>
<g>
	<g>
		<path class="st0" d="M441.2,322.9l-48.7-47.4c-3.3-3.2-8.6-3.2-11.9,0l-81.9,80.3V8.5c0-4.7-3.8-8.5-8.5-8.5h-68.3
			c-4.7,0-8.5,3.8-8.5,8.5v347.3l-81.9-80.3c-3.3-3.2-8.6-3.3-11.9,0l-48.7,47.4c-1.7,1.6-2.6,3.8-2.6,6.1s0.9,4.5,2.6,6.1
			l179.2,174.5c1.7,1.6,3.8,2.4,5.9,2.4c2.1,0,4.3-0.8,6-2.4l179.2-174.5c1.6-1.6,2.6-3.8,2.6-6.1
			C443.7,326.7,442.8,324.5,441.2,322.9z"/>
	</g>
</g>
</svg>
