<svg width="40" height="40" viewBox="0 0 40 40" fill="none" xmlns="http://www.w3.org/2000/svg">
<path fill-rule="evenodd" clip-rule="evenodd" d="M20 40C9 40 0 31 0 20C0 9 9 0 20 0C31 0 40 9 40 20C40 31 31 40 20 40ZM20 2.5C10.375 2.5 2.5 10.375 2.5 20C2.5 29.625 10.375 37.5 20 37.5C29.625 37.5 37.5 29.625 37.5 20C37.5 10.375 29.625 2.5 20 2.5ZM30 27.5694V20.7718C30 17.1305 28.0613 15.4361 25.4752 15.4361C23.3878 15.4361 22.4552 16.5884 21.933 17.395V15.7146H18.0026C18.0556 16.8276 18.0026 27.5694 18.0026 27.5694H21.9334V20.949C21.9334 20.5942 21.9601 20.2415 22.0637 19.9881C22.348 19.2793 22.9941 18.5465 24.0799 18.5465C25.5022 18.5465 26.0706 19.6338 26.0706 21.2271V27.5694H30ZM21.933 17.395V17.4333H21.9072C21.9147 17.4211 21.925 17.4076 21.933 17.395ZM11.6667 12.0478C11.6667 10.8846 12.5462 10 13.8909 10C15.2357 10 16.0624 10.8846 16.0882 12.0478C16.0882 13.1859 15.2357 14.0972 13.865 14.0972H13.8387C12.5208 14.0972 11.6667 13.1857 11.6667 12.0478ZM15.8294 27.5694H11.9001V15.7146H15.8294V27.5694Z" fill="white"/>
</svg>
