<svg width="40" height="40" viewBox="0 0 40 40" fill="none" xmlns="http://www.w3.org/2000/svg">
<path fill-rule="evenodd" clip-rule="evenodd" d="M20 40C9 40 0 31 0 20C0 9 9 0 20 0C31 0 40 9 40 20C40 31 31 40 20 40ZM20 2.5C10.375 2.5 2.5 10.375 2.5 20C2.5 29.625 10.375 37.5 20 37.5C29.625 37.5 37.5 29.625 37.5 20C37.5 10.375 29.625 2.5 20 2.5ZM27.625 14.4375C28.5 14.375 29.25 14.125 30 13.8125C29.4375 14.625 28.75 15.375 28 15.9375V16.4375C28 21.875 23.875 28.125 16.3125 28.125C14 28.125 11.8125 27.5 10 26.3125C10.3125 26.375 10.6875 26.375 11 26.375C12.9375 26.375 14.75 25.75 16.125 24.625C14.375 24.5625 12.8125 23.375 12.3125 21.75C12.5625 21.8125 12.8125 21.8125 13.0625 21.8125C13.3899 21.8125 13.6696 21.7649 13.9849 21.7112C14.0307 21.7034 14.0774 21.6954 14.125 21.6875C12.25 21.3125 10.8125 19.6875 10.8125 17.6875V17.625C11.375 17.9375 12 18.125 12.6875 18.125C11.625 17.375 10.875 16.125 10.875 14.6875C10.875 13.9375 11.0625 13.25 11.4375 12.625C13.4375 15.125 16.4375 16.75 19.875 16.9375C19.8125 16.625 19.75 16.3125 19.75 16C19.75 13.6875 21.625 11.875 23.875 11.875C25 11.875 26.0625 12.375 26.8125 13.1875C27.75 13 28.625 12.6875 29.4375 12.1875C29.125 13.125 28.5 13.9375 27.625 14.4375Z" fill="white"/>
</svg>
